<?xml version="1.0" encoding="UTF-8" standalone="no"?>
<!-- Created with Inkscape (http://www.inkscape.org/) -->

<svg
   xmlns:dc="http://purl.org/dc/elements/1.1/"
   xmlns:cc="http://creativecommons.org/ns#"
   xmlns:rdf="http://www.w3.org/1999/02/22-rdf-syntax-ns#"
   xmlns:svg="http://www.w3.org/2000/svg"
   xmlns="http://www.w3.org/2000/svg"
   xmlns:xlink="http://www.w3.org/1999/xlink"
   xmlns:sodipodi="http://sodipodi.sourceforge.net/DTD/sodipodi-0.dtd"
   xmlns:inkscape="http://www.inkscape.org/namespaces/inkscape"
   width="3.25in"
   height="3.25in"
   viewBox="0 0 292.5 292.5"
   id="svg2"
   version="1.1"
   inkscape:version="0.91 r13725"
   sodipodi:docname="magnify-glass.svg">
  <defs
     id="defs4">
    <linearGradient
       inkscape:collect="always"
       id="linearGradient4263">
      <stop
         id="stop4253"
         offset="0"
         style="stop-color:#ffffff;stop-opacity:0" />
      <stop
         id="stop4251"
         offset="1"
         style="stop-color:#c1e2e2;stop-opacity:0.22352941" />
    </linearGradient>
    <radialGradient
       inkscape:collect="always"
       xlink:href="#linearGradient4263"
       id="radialGradient4255"
       cx="-323.20789"
       cy="450.668"
       fx="-323.20789"
       fy="450.668"
       r="92.671341"
       gradientTransform="matrix(1.706693,0.03556598,-0.02910961,1.3776483,248.94382,-150.38293)"
       gradientUnits="userSpaceOnUse" />
  </defs>
  <sodipodi:namedview
     id="base"
     pagecolor="#ffffff"
     bordercolor="#666666"
     borderopacity="1.0"
     inkscape:pageopacity="0"
     inkscape:pageshadow="2"
     inkscape:zoom="1.4"
     inkscape:cx="218.63271"
     inkscape:cy="141.53259"
     inkscape:document-units="px"
     inkscape:current-layer="layer1"
     showgrid="false"
     inkscape:window-width="1440"
     inkscape:window-height="855"
     inkscape:window-x="0"
     inkscape:window-y="1"
     inkscape:window-maximized="1"
     units="in"
     fit-margin-top="0.25"
     fit-margin-left="0.25"
     fit-margin-right="0.25"
     fit-margin-bottom="0.25"
     showguides="false" />
  <metadata
     id="metadata7">
    <rdf:RDF>
      <cc:Work
         rdf:about="">
        <dc:format>image/svg+xml</dc:format>
        <dc:type
           rdf:resource="http://purl.org/dc/dcmitype/StillImage" />
        <dc:title></dc:title>
      </cc:Work>
    </rdf:RDF>
  </metadata>
  <g
     inkscape:label="Layer 1"
     inkscape:groupmode="layer"
     id="layer1"
     transform="translate(448.21426,-301.86221)">
    <g
       id="g4311">
      <path
         sodipodi:nodetypes="cccccc"
         inkscape:connector-curvature="0"
         id="path4309"
         d="m -233.68313,513.42374 c 14.46632,-16.4537 18.24257,-31.79091 18.58958,-59.50074 l -3.74978,25.15746 -9.41022,18.05457 -11.36422,12.87944 z"
         style="fill:#111112;fill-opacity:0.22857145;fill-rule:evenodd;stroke:none;stroke-width:1px;stroke-linecap:butt;stroke-linejoin:miter;stroke-opacity:1" />
      <path
         transform="translate(-448.21426,301.86221)"
         sodipodi:nodetypes="cccsssccccccccc"
         inkscape:connector-curvature="0"
         id="path4301"
         d="m 214.81055,209.05469 c -2.52501,0.0867 -5.11767,1.59569 -6.91602,4.02539 l 0.14063,-2.1875 c 0,0 -38.17862,20.08108 -46.60743,21.42969 -8.92857,1.42858 -52.89362,0.99693 -16.43706,4.5163 7.92631,0.76518 26.66724,-1.27665 37.15191,-3.80341 7.61285,-1.83466 17.65624,-5.8772 24.16992,-10.35352 0.51738,1.20118 1.33636,2.16405 2.37891,2.79688 1.5962,0.96158 3.60845,1.08984 5.60742,0.35742 5.94632,6.76835 17.32369,16.81559 30.23828,26.70312 21.081,16.13865 39.89749,27.04607 42.0293,24.36328 2.12905,-2.68506 -13.23467,-17.94472 -34.31641,-34.08398 -12.29616,-9.41069 -24.43157,-17.48643 -32.60156,-21.69531 2.43621,-4.27105 1.74883,-9.24781 -1.55274,-11.24219 -0.96396,-0.58193 -2.08963,-0.86502 -3.28515,-0.82617 z"
         style="opacity:1;fill:#111112;fill-opacity:0.22857145;stroke:none;stroke-width:10;stroke-linecap:round;stroke-linejoin:round;stroke-miterlimit:4;stroke-dasharray:none;stroke-opacity:0.33968255" />
    </g>
    <g
       id="g4286"
       transform="matrix(0.78630359,0,0,0.78633254,-30.990316,106.55567)">
      <g
         transform="translate(2.5253814,0)"
         id="g4277">
        <ellipse
           style="opacity:1;fill:none;fill-opacity:0.22352941;stroke:#bfc8c8;stroke-width:12.28483391;stroke-linecap:round;stroke-linejoin:round;stroke-miterlimit:4;stroke-dasharray:none;stroke-opacity:0.33968255"
           id="path4275"
           cx="-347.92853"
           cy="432.86221"
           rx="104.57188"
           ry="105.64329" />
        <g
           id="g4267"
           transform="translate(-3.5714274,-12.857144)">
          <g
             id="g4271"
             transform="translate(-30.357143,-12.142857)">
            <ellipse
               style="opacity:1;fill:url(#radialGradient4255);fill-opacity:1;stroke:none;stroke-width:2;stroke-linecap:round;stroke-linejoin:round;stroke-miterlimit:4;stroke-dasharray:none;stroke-opacity:1"
               id="path4247"
               cx="-313.95584"
               cy="458.98383"
               rx="111.06076"
               ry="111.36932" />
            <circle
               style="opacity:1;fill:none;fill-opacity:1;stroke:#434243;stroke-width:6;stroke-linecap:round;stroke-linejoin:round;stroke-miterlimit:4;stroke-dasharray:none;stroke-opacity:1"
               id="path4241"
               cx="-313.21426"
               cy="459.36221"
               r="111.45971" />
          </g>
        </g>
      </g>
      <path
         sodipodi:nodetypes="cssssssc"
         inkscape:connector-curvature="0"
         id="path4284"
         d="m -425.01752,384.38949 c 3.24449,-10.61995 31.35572,-32.70089 41.40602,-35.77502 15.47617,-4.73377 24.87075,-2.63021 26.9281,6.50454 2.89387,12.84892 -24.11755,12.45372 -24.11755,12.45372 -3.7581,0.30576 -12.41926,1.78531 -19.61291,9.553 -4.91744,5.30985 -7.29693,9.11048 -8.95891,18.41654 -1.17143,6.55915 -0.53896,17.48889 -9.96929,18.59242 -6.42302,0.75162 -11.28573,-15.80572 -5.67546,-29.7452 z"
         style="fill:#e4ffff;fill-opacity:0.52380958;fill-rule:evenodd;stroke:none;stroke-width:1px;stroke-linecap:butt;stroke-linejoin:miter;stroke-opacity:1" />
    </g>
    <g
       id="g4297"
       transform="matrix(0.66677367,-0.10848824,0.10848824,0.66677367,-133.66818,123.58258)">
      <ellipse
         transform="matrix(0.76198763,-0.64759158,0.64759158,0.76198763,0,0)"
         ry="76.23243"
         rx="12.426936"
         cy="326.23148"
         cx="-531.85388"
         id="path4239"
         style="opacity:1;fill:#7b2202;fill-opacity:1;stroke:none;stroke-width:1.5;stroke-linecap:round;stroke-linejoin:round;stroke-miterlimit:4;stroke-dasharray:none;stroke-opacity:1" />
      <rect
         transform="matrix(0.77993455,-0.62586109,0.62586109,0.77993455,0,0)"
         ry="13.384521"
         y="263.0058"
         x="-540.64618"
         height="26.769043"
         width="32.829956"
         id="rect4295"
         style="opacity:1;fill:#434243;fill-opacity:1;stroke:none;stroke-width:10;stroke-linecap:round;stroke-linejoin:round;stroke-miterlimit:4;stroke-dasharray:none;stroke-opacity:0.33968255" />
    </g>
  </g>
</svg>
